<svg width="511" height="190" viewBox="0 0 511 190" fill="none" xmlns="http://www.w3.org/2000/svg">
<path d="M142.129 178.542V184.042H147.629H180.194H276.054C293.643 184.042 309.158 180.422 322.397 172.957C335.742 165.522 346.085 155.005 353.343 141.502C355.448 137.585 357.24 133.484 358.724 129.204V178.542V184.042H364.224H445.163C455.541 184.042 465.21 182.283 474.105 178.693C483.234 175.074 490.682 169.723 496.233 162.561L496.253 162.535L496.273 162.509C501.988 154.95 504.701 145.787 504.701 135.358C504.701 123.516 501.595 113.171 495.095 104.67C491.061 99.2626 486.074 94.9563 480.206 91.7371C484.47 88.3541 488.006 84.2065 490.775 79.3072C495.314 71.276 497.622 62.7179 497.622 53.7113C497.622 45.8109 495.865 38.2469 492.381 31.0778C489.006 23.6514 484.005 17.5657 477.419 12.9197C470.713 7.91395 462.78 5.5 453.894 5.5H364.224H358.724V11V60.6042C357.492 57.0232 356.048 53.5323 354.392 50.1331C347.79 36.4266 337.854 25.5648 324.695 17.6297C311.358 9.4288 295.042 5.5 276.054 5.5H180.194H145.505H142.18L140.635 8.44436L95.5019 94.453L50.8043 8.46332L49.2639 5.5H45.9242H11H5.5V11V178.542V184.042H11H43.5645H49.0645V178.542V90.9051L81.6411 153.015L83.1859 155.961H86.5118H104.682H108.008L109.552 153.015L142.129 90.9051V178.542ZM185.694 160.374V30.7942L226.689 98.8691L185.694 160.374ZM314.971 68.3284L314.98 68.3468L314.989 68.3651C318.501 75.6704 320.345 84.3454 320.345 94.5349C320.345 104.378 318.512 113.092 314.955 120.777L314.945 120.798L314.935 120.819C311.579 128.231 306.678 134.012 300.198 138.295C293.87 142.324 285.917 144.489 276.054 144.489H253.238V45.0529H276.054C285.76 45.0529 293.651 47.2177 299.996 51.2682L300.032 51.2908L300.067 51.3128C306.498 55.2806 311.464 60.8927 314.971 68.3284ZM458.886 120.356L458.909 120.402L458.933 120.448C460.197 122.861 460.901 125.74 460.901 129.223C460.901 132.232 460.19 134.905 458.794 137.349C457.377 139.829 455.446 141.834 452.921 143.404C450.698 144.729 448.159 145.433 445.163 145.433H402.288V112.306H446.815C449.533 112.306 451.688 113.019 453.506 114.332L453.644 114.432L453.789 114.523C455.851 115.826 457.56 117.705 458.886 120.356ZM452.482 68.3437L452.428 68.4323L452.379 68.5229C451.111 70.8278 449.449 72.5208 447.363 73.7288C445.252 74.951 442.906 75.5844 440.208 75.5844H402.288V44.345H441.624C444.12 44.345 446.131 44.9536 447.839 46.0583L447.898 46.0968L447.959 46.1337C449.857 47.294 451.373 48.9334 452.514 51.2156L452.563 51.312L452.615 51.4064C453.823 53.604 454.53 56.3562 454.53 59.8467C454.53 63.4554 453.762 66.2093 452.482 68.3437Z" fill="white" stroke="black" stroke-width="11"/>
</svg>
