<svg width="384" height="384" viewBox="0 0 384 384" fill="none" xmlns="http://www.w3.org/2000/svg">
<circle cx="192" cy="192" r="192" fill="#C4C4C4"/>
<path d="M165.056 213.44V215.44H167.056H175.888H201.887C206.728 215.44 211.025 214.443 214.706 212.368C218.409 210.304 221.283 207.381 223.297 203.635C225.315 199.88 226.287 195.532 226.287 190.656C226.287 186.204 225.399 182.104 223.591 178.392C221.757 174.585 218.995 171.566 215.343 169.364C211.628 167.08 207.105 166 201.887 166H175.888H166.48H165.271L164.709 167.071L152.92 189.536L141.247 167.078L140.686 166H139.472H130H128V168V213.44V215.44H130H138.832H140.832V213.44V191.735L148.709 206.753L149.271 207.824H150.48H155.408H156.617L157.179 206.753L165.056 191.735V213.44ZM177.888 206.833V175.198L187.897 191.818L177.888 206.833ZM201.887 203.696H196.207V177.744H201.887C204.442 177.744 206.483 178.313 208.107 179.35L208.12 179.358L208.133 179.366C209.788 180.387 211.07 181.832 211.982 183.765L211.985 183.772L211.988 183.779C212.902 185.679 213.391 187.954 213.391 190.656C213.391 193.261 212.906 195.55 211.976 197.56L211.973 197.567L211.969 197.575C211.098 199.5 209.832 200.991 208.159 202.098C206.541 203.127 204.485 203.696 201.887 203.696ZM265.205 209.417L265.212 209.408L265.219 209.398C266.847 207.246 267.608 204.648 267.608 201.728C267.608 198.425 266.74 195.506 264.9 193.098C263.909 191.77 262.714 190.679 261.333 189.821C262.293 188.958 263.106 187.942 263.765 186.776C265.038 184.525 265.688 182.118 265.688 179.584C265.688 177.365 265.195 175.24 264.218 173.229C263.268 171.139 261.856 169.421 259.999 168.109C258.084 166.682 255.825 166 253.32 166H229H227V168V213.44V215.44H229H250.952C253.825 215.44 256.512 214.953 258.991 213.953C261.54 212.942 263.637 211.44 265.205 209.417ZM254.219 197.886L254.228 197.903L254.236 197.92C254.536 198.492 254.712 199.19 254.712 200.064C254.712 200.795 254.541 201.432 254.208 202.016C253.867 202.612 253.404 203.094 252.791 203.476C252.274 203.784 251.678 203.952 250.952 203.952H239.832V195.984H251.4C252.039 195.984 252.518 196.149 252.917 196.437L252.967 196.474L253.02 196.507C253.493 196.806 253.897 197.242 254.219 197.886ZM252.501 183.291L252.482 183.323L252.464 183.356C252.163 183.904 251.776 184.294 251.294 184.573C250.803 184.858 250.255 185.008 249.608 185.008H239.832V177.552H249.992C250.58 177.552 251.028 177.693 251.401 177.935L251.423 177.949L251.445 177.963C251.874 178.225 252.222 178.595 252.491 179.134L252.509 179.169L252.528 179.204C252.807 179.712 252.984 180.371 252.984 181.248C252.984 182.153 252.792 182.806 252.501 183.291Z" fill="white" stroke="black" stroke-width="4"/>
</svg>
