<svg width="206" height="76" viewBox="0 0 206 76" fill="none" xmlns="http://www.w3.org/2000/svg">
<rect width="206" height="76" fill="#C4C4C4"/>
<path d="M70.056 60.44V62.44H72.056H80.888H106.887C111.728 62.44 116.025 61.4433 119.706 59.3681C123.409 57.3042 126.283 54.3814 128.297 50.6349C130.315 46.8801 131.287 42.5321 131.287 37.656C131.287 33.2038 130.399 29.1036 128.591 25.3917C126.757 21.5852 123.995 18.566 120.343 16.3638C116.628 14.0797 112.105 13 106.887 13H80.888H71.48H70.2709L69.709 14.0707L57.9204 36.5358L46.2466 14.0776L45.6865 13H44.472H35H33V15V60.44V62.44H35H43.832H45.832V60.44V38.735L53.7088 53.753L54.2706 54.824H55.48H60.408H61.6174L62.1792 53.753L70.056 38.735V60.44ZM82.888 53.8334V22.1979L92.8966 38.8177L82.888 53.8334ZM106.887 50.696H101.207V24.744H106.887C109.442 24.744 111.483 25.3131 113.107 26.3498L113.12 26.3581L113.133 26.3661C114.788 27.3873 116.07 28.8319 116.982 30.7652L116.985 30.7719L116.988 30.7786C117.902 32.679 118.391 34.954 118.391 37.656C118.391 40.2612 117.906 42.5505 116.976 44.5598L116.973 44.5674L116.969 44.575C116.098 46.4996 114.832 47.9913 113.159 49.0981C111.541 50.1269 109.485 50.696 106.887 50.696ZM170.205 56.4171L170.212 56.4077L170.219 56.3982C171.847 54.2457 172.608 51.6478 172.608 48.728C172.608 45.4249 171.74 42.5065 169.9 40.0985C168.909 38.7701 167.714 37.6788 166.333 36.8211C167.293 35.9583 168.106 34.9424 168.765 33.7761C170.038 31.5245 170.688 29.1176 170.688 26.584C170.688 24.3655 170.195 22.2403 169.218 20.2294C168.268 18.1394 166.856 16.4208 164.999 15.1093C163.084 13.6816 160.825 13 158.32 13H134H132V15V60.44V62.44H134H155.952C158.825 62.44 161.512 61.953 163.991 60.9527C166.54 59.9418 168.637 58.4397 170.205 56.4171ZM159.219 44.8864L159.228 44.9033L159.236 44.92C159.536 45.4921 159.712 46.19 159.712 47.064C159.712 47.7948 159.541 48.4323 159.208 49.0157C158.867 49.6121 158.404 50.0941 157.791 50.476C157.274 50.7836 156.678 50.952 155.952 50.952H144.832V42.984H156.4C157.039 42.984 157.518 43.1491 157.917 43.4374L157.967 43.4738L158.02 43.507C158.493 43.806 158.897 44.2422 159.219 44.8864ZM157.501 30.291L157.482 30.3232L157.464 30.3562C157.163 30.9035 156.776 31.2938 156.294 31.5731C155.803 31.8576 155.255 32.008 154.608 32.008H144.832V24.552H154.992C155.58 24.552 156.028 24.6934 156.401 24.9351L156.423 24.9491L156.445 24.9626C156.874 25.2245 157.222 25.5953 157.491 26.1344L157.509 26.1695L157.528 26.2038C157.807 26.7122 157.984 27.3713 157.984 28.248C157.984 29.1532 157.792 29.8056 157.501 30.291Z" fill="white" stroke="black" stroke-width="4"/>
</svg>
