<svg width="173" height="173" viewBox="0 0 173 173" fill="none" xmlns="http://www.w3.org/2000/svg">
<circle cx="86.5" cy="86.5" r="86.5" fill="#C4C4C4"/>
<path d="M53.056 108.44V110.44H55.056H63.888H89.887C94.7278 110.44 99.0253 109.443 102.706 107.368C106.409 105.304 109.283 102.381 111.297 98.6349C113.315 94.8801 114.287 90.5321 114.287 85.656C114.287 81.2038 113.399 77.1036 111.591 73.3917C109.757 69.5852 106.995 66.566 103.343 64.3638C99.6276 62.0797 95.1051 61 89.887 61H63.888H54.48H53.2709L52.709 62.0707L40.9204 84.5358L29.2466 62.0776L28.6865 61H27.472H18H16V63V108.44V110.44H18H26.832H28.832V108.44V86.735L36.7088 101.753L37.2706 102.824H38.48H43.408H44.6174L45.1792 101.753L53.056 86.735V108.44ZM65.888 101.833V70.1979L75.8966 86.8177L65.888 101.833ZM89.887 98.696H84.207V72.744H89.887C92.442 72.744 94.4827 73.3131 96.1069 74.3498L96.1198 74.3581L96.1328 74.3661C97.7878 75.3873 99.0702 76.8319 99.9821 78.7652L99.9853 78.7719L99.9885 78.7786C100.902 80.679 101.391 82.954 101.391 85.656C101.391 88.2612 100.906 90.5505 99.9761 92.5598L99.9725 92.5674L99.9691 92.575C99.0975 94.4996 97.8315 95.9913 96.1585 97.0981C94.5407 98.1269 92.4845 98.696 89.887 98.696ZM153.205 104.417L153.212 104.408L153.219 104.398C154.847 102.246 155.608 99.6478 155.608 96.728C155.608 93.4249 154.74 90.5065 152.9 88.0985C151.909 86.7701 150.714 85.6788 149.333 84.8211C150.293 83.9583 151.106 82.9424 151.765 81.7761C153.038 79.5245 153.688 77.1176 153.688 74.584C153.688 72.3655 153.195 70.2403 152.218 68.2294C151.268 66.1394 149.856 64.4208 147.999 63.1093C146.084 61.6816 143.825 61 141.32 61H117H115V63V108.44V110.44H117H138.952C141.825 110.44 144.512 109.953 146.991 108.953C149.54 107.942 151.637 106.44 153.205 104.417ZM142.219 92.8864L142.228 92.9033L142.236 92.92C142.536 93.4921 142.712 94.19 142.712 95.064C142.712 95.7948 142.541 96.4323 142.208 97.0157C141.867 97.6121 141.404 98.0941 140.791 98.476C140.274 98.7836 139.678 98.952 138.952 98.952H127.832V90.984H139.4C140.039 90.984 140.518 91.1491 140.917 91.4374L140.967 91.4738L141.02 91.507C141.493 91.806 141.897 92.2422 142.219 92.8864ZM140.501 78.291L140.482 78.3232L140.464 78.3562C140.163 78.9035 139.776 79.2938 139.294 79.5731C138.803 79.8576 138.255 80.008 137.608 80.008H127.832V72.552H137.992C138.58 72.552 139.028 72.6934 139.401 72.9351L139.423 72.9491L139.445 72.9626C139.874 73.2245 140.222 73.5953 140.491 74.1344L140.509 74.1695L140.528 74.2038C140.807 74.7122 140.984 75.3713 140.984 76.248C140.984 77.1532 140.792 77.8056 140.501 78.291Z" fill="white" stroke="black" stroke-width="4"/>
</svg>
